<svg width="282" height="277" viewBox="0 0 282 277" fill="none" xmlns="http://www.w3.org/2000/svg">
<g filter="url(#filter0_d_675_6572)">
<rect x="41" width="200" height="102" rx="16" fill="#F7FEE7" shape-rendering="crispEdges"/>
<rect x="53" y="8" width="54" height="18" rx="9" fill="#FACC15"/>
<path d="M66.539 20V14.785H67.365V20H66.539ZM68.3692 20V16.213H69.1252V16.955L69.0342 16.857C69.1276 16.619 69.2769 16.4393 69.4822 16.318C69.6876 16.192 69.9256 16.129 70.1962 16.129C70.4762 16.129 70.7236 16.1897 70.9382 16.311C71.1529 16.4323 71.3209 16.6003 71.4422 16.815C71.5636 17.0297 71.6242 17.277 71.6242 17.557V20H70.8402V17.767C70.8402 17.5757 70.8052 17.4147 70.7352 17.284C70.6652 17.1487 70.5649 17.046 70.4342 16.976C70.3082 16.9013 70.1636 16.864 70.0002 16.864C69.8369 16.864 69.6899 16.9013 69.5592 16.976C69.4332 17.046 69.3352 17.1487 69.2652 17.284C69.1952 17.4193 69.1602 17.5803 69.1602 17.767V20H68.3692ZM75.5984 20.084C75.2718 20.084 74.9684 20.0233 74.6884 19.902C74.4084 19.776 74.1704 19.6057 73.9744 19.391C73.7784 19.1763 73.6338 18.929 73.5404 18.649L74.2404 18.355C74.3664 18.677 74.5508 18.9243 74.7934 19.097C75.0361 19.2697 75.3161 19.356 75.6334 19.356C75.8201 19.356 75.9834 19.328 76.1234 19.272C76.2634 19.2113 76.3708 19.1273 76.4454 19.02C76.5248 18.9127 76.5644 18.789 76.5644 18.649C76.5644 18.4577 76.5108 18.306 76.4034 18.194C76.2961 18.082 76.1374 17.9933 75.9274 17.928L74.9474 17.62C74.5554 17.4987 74.2568 17.3143 74.0514 17.067C73.8461 16.815 73.7434 16.521 73.7434 16.185C73.7434 15.891 73.8158 15.6343 73.9604 15.415C74.1051 15.191 74.3034 15.016 74.5554 14.89C74.8121 14.764 75.1038 14.701 75.4304 14.701C75.7431 14.701 76.0278 14.757 76.2844 14.869C76.5411 14.9763 76.7604 15.1257 76.9424 15.317C77.1291 15.5083 77.2644 15.73 77.3484 15.982L76.6624 16.283C76.5598 16.0077 76.3988 15.7953 76.1794 15.646C75.9648 15.4967 75.7151 15.422 75.4304 15.422C75.2578 15.422 75.1061 15.4523 74.9754 15.513C74.8448 15.569 74.7421 15.653 74.6674 15.765C74.5974 15.8723 74.5624 15.9983 74.5624 16.143C74.5624 16.311 74.6161 16.4603 74.7234 16.591C74.8308 16.7217 74.9941 16.8197 75.2134 16.885L76.1234 17.172C76.5388 17.298 76.8514 17.48 77.0614 17.718C77.2714 17.9513 77.3764 18.243 77.3764 18.593C77.3764 18.8823 77.2994 19.139 77.1454 19.363C76.9961 19.587 76.7884 19.7643 76.5224 19.895C76.2564 20.021 75.9484 20.084 75.5984 20.084ZM79.8646 20.042C79.468 20.042 79.16 19.93 78.9406 19.706C78.7213 19.482 78.6116 19.167 78.6116 18.761V16.927H77.9466V16.213H78.0516C78.229 16.213 78.3666 16.1617 78.4646 16.059C78.5626 15.9563 78.6116 15.8163 78.6116 15.639V15.345H79.4026V16.213H80.2636V16.927H79.4026V18.726C79.4026 18.8567 79.4236 18.9687 79.4656 19.062C79.5076 19.1507 79.5753 19.2207 79.6686 19.272C79.762 19.3187 79.8833 19.342 80.0326 19.342C80.07 19.342 80.112 19.3397 80.1586 19.335C80.2053 19.3303 80.2496 19.3257 80.2916 19.321V20C80.2263 20.0093 80.154 20.0187 80.0746 20.028C79.9953 20.0373 79.9253 20.042 79.8646 20.042ZM82.8222 20.084C82.4582 20.084 82.1245 19.9977 81.8212 19.825C81.5225 19.6523 81.2845 19.4167 81.1072 19.118C80.9299 18.8193 80.8412 18.481 80.8412 18.103C80.8412 17.7203 80.9299 17.382 81.1072 17.088C81.2845 16.7893 81.5225 16.556 81.8212 16.388C82.1199 16.2153 82.4535 16.129 82.8222 16.129C83.1955 16.129 83.5292 16.2153 83.8232 16.388C84.1219 16.556 84.3575 16.7893 84.5302 17.088C84.7075 17.382 84.7962 17.7203 84.7962 18.103C84.7962 18.4857 84.7075 18.8263 84.5302 19.125C84.3529 19.4237 84.1149 19.6593 83.8162 19.832C83.5175 20 83.1862 20.084 82.8222 20.084ZM82.8222 19.349C83.0462 19.349 83.2445 19.2953 83.4172 19.188C83.5899 19.0807 83.7252 18.9337 83.8232 18.747C83.9259 18.5557 83.9772 18.341 83.9772 18.103C83.9772 17.865 83.9259 17.6527 83.8232 17.466C83.7252 17.2793 83.5899 17.1323 83.4172 17.025C83.2445 16.9177 83.0462 16.864 82.8222 16.864C82.6029 16.864 82.4045 16.9177 82.2272 17.025C82.0545 17.1323 81.9169 17.2793 81.8142 17.466C81.7162 17.6527 81.6672 17.865 81.6672 18.103C81.6672 18.341 81.7162 18.5557 81.8142 18.747C81.9169 18.9337 82.0545 19.0807 82.2272 19.188C82.4045 19.2953 82.6029 19.349 82.8222 19.349ZM87.3674 20.084C86.9894 20.084 86.6534 19.9977 86.3594 19.825C86.0701 19.6477 85.8391 19.4097 85.6664 19.111C85.4984 18.8123 85.4144 18.474 85.4144 18.096C85.4144 17.7227 85.4984 17.3867 85.6664 17.088C85.8344 16.7893 86.0654 16.556 86.3594 16.388C86.6534 16.2153 86.9894 16.129 87.3674 16.129C87.6241 16.129 87.8644 16.1757 88.0884 16.269C88.3124 16.3577 88.5061 16.4813 88.6694 16.64C88.8374 16.7987 88.9611 16.983 89.0404 17.193L88.3474 17.515C88.2681 17.319 88.1398 17.1627 87.9624 17.046C87.7898 16.9247 87.5914 16.864 87.3674 16.864C87.1528 16.864 86.9591 16.9177 86.7864 17.025C86.6184 17.1277 86.4854 17.2747 86.3874 17.466C86.2894 17.6527 86.2404 17.865 86.2404 18.103C86.2404 18.341 86.2894 18.5557 86.3874 18.747C86.4854 18.9337 86.6184 19.0807 86.7864 19.188C86.9591 19.2953 87.1528 19.349 87.3674 19.349C87.5961 19.349 87.7944 19.2907 87.9624 19.174C88.1351 19.0527 88.2634 18.8917 88.3474 18.691L89.0404 19.02C88.9658 19.2207 88.8444 19.4027 88.6764 19.566C88.5131 19.7247 88.3194 19.8507 88.0954 19.944C87.8714 20.0373 87.6288 20.084 87.3674 20.084ZM89.8136 20V14.701H90.6046V18.25L90.2966 18.173L92.1936 16.213H93.1806L91.7526 17.732L93.2436 20H92.3336L91.0036 17.991L91.4726 17.928L90.3526 19.118L90.6046 18.593V20H89.8136Z" fill="#713F12"/>
<path d="M54.155 49V37.825H58.865C59.565 37.825 60.17 37.95 60.68 38.2C61.19 38.44 61.58 38.79 61.85 39.25C62.12 39.7 62.255 40.235 62.255 40.855C62.255 41.395 62.115 41.89 61.835 42.34C61.565 42.78 61.14 43.13 60.56 43.39V42.64C61.07 42.84 61.485 43.095 61.805 43.405C62.125 43.705 62.355 44.045 62.495 44.425C62.645 44.805 62.72 45.205 62.72 45.625C62.72 46.675 62.375 47.5 61.685 48.1C61.005 48.7 60.07 49 58.88 49H54.155ZM55.925 47.425H59.015C59.605 47.425 60.075 47.265 60.425 46.945C60.775 46.615 60.95 46.18 60.95 45.64C60.95 45.09 60.775 44.655 60.425 44.335C60.075 44.005 59.605 43.84 59.015 43.84H55.925V47.425ZM55.925 42.28H58.91C59.39 42.28 59.775 42.145 60.065 41.875C60.355 41.595 60.5 41.23 60.5 40.78C60.5 40.33 60.355 39.98 60.065 39.73C59.775 39.48 59.39 39.355 58.91 39.355H55.925V42.28ZM66.8057 49.18C66.2557 49.18 65.7707 49.085 65.3507 48.895C64.9407 48.695 64.6207 48.425 64.3907 48.085C64.1607 47.735 64.0457 47.325 64.0457 46.855C64.0457 46.415 64.1407 46.02 64.3307 45.67C64.5307 45.32 64.8357 45.025 65.2457 44.785C65.6557 44.545 66.1707 44.375 66.7907 44.275L69.6107 43.81V45.145L67.1207 45.58C66.6707 45.66 66.3407 45.805 66.1307 46.015C65.9207 46.215 65.8157 46.475 65.8157 46.795C65.8157 47.105 65.9307 47.36 66.1607 47.56C66.4007 47.75 66.7057 47.845 67.0757 47.845C67.5357 47.845 67.9357 47.745 68.2757 47.545C68.6257 47.345 68.8957 47.08 69.0857 46.75C69.2757 46.41 69.3707 46.035 69.3707 45.625V43.54C69.3707 43.14 69.2207 42.815 68.9207 42.565C68.6307 42.305 68.2407 42.175 67.7507 42.175C67.3007 42.175 66.9057 42.295 66.5657 42.535C66.2357 42.765 65.9907 43.065 65.8307 43.435L64.4207 42.73C64.5707 42.33 64.8157 41.98 65.1557 41.68C65.4957 41.37 65.8907 41.13 66.3407 40.96C66.8007 40.79 67.2857 40.705 67.7957 40.705C68.4357 40.705 69.0007 40.825 69.4907 41.065C69.9907 41.305 70.3757 41.64 70.6457 42.07C70.9257 42.49 71.0657 42.98 71.0657 43.54V49H69.4457V47.53L69.7907 47.575C69.6007 47.905 69.3557 48.19 69.0557 48.43C68.7657 48.67 68.4307 48.855 68.0507 48.985C67.6807 49.115 67.2657 49.18 66.8057 49.18ZM76.7976 49.18C76.0176 49.18 75.3176 48.995 74.6976 48.625C74.0876 48.245 73.6026 47.735 73.2426 47.095C72.8926 46.455 72.7176 45.735 72.7176 44.935C72.7176 44.135 72.8976 43.415 73.2576 42.775C73.6176 42.135 74.1026 41.63 74.7126 41.26C75.3226 40.89 76.0126 40.705 76.7826 40.705C77.4326 40.705 78.0076 40.835 78.5076 41.095C79.0076 41.355 79.4026 41.715 79.6926 42.175L79.4376 42.565V37.645H81.1176V49H79.5126V47.35L79.7076 47.665C79.4276 48.155 79.0276 48.53 78.5076 48.79C77.9876 49.05 77.4176 49.18 76.7976 49.18ZM76.9626 47.605C77.4326 47.605 77.8526 47.49 78.2226 47.26C78.6026 47.03 78.8976 46.715 79.1076 46.315C79.3276 45.905 79.4376 45.445 79.4376 44.935C79.4376 44.425 79.3276 43.97 79.1076 43.57C78.8976 43.17 78.6026 42.855 78.2226 42.625C77.8526 42.395 77.4326 42.28 76.9626 42.28C76.4926 42.28 76.0676 42.395 75.6876 42.625C75.3076 42.855 75.0126 43.17 74.8026 43.57C74.5926 43.97 74.4876 44.425 74.4876 44.935C74.4876 45.445 74.5926 45.905 74.8026 46.315C75.0126 46.715 75.3026 47.03 75.6726 47.26C76.0526 47.49 76.4826 47.605 76.9626 47.605ZM83.0964 49V40.885H84.7164V42.64L84.5064 42.37C84.6764 41.82 84.9864 41.405 85.4364 41.125C85.8864 40.845 86.4014 40.705 86.9814 40.705C87.6314 40.705 88.2064 40.88 88.7064 41.23C89.2164 41.57 89.5564 42.025 89.7264 42.595L89.2464 42.64C89.4864 41.99 89.8514 41.505 90.3414 41.185C90.8414 40.865 91.4114 40.705 92.0514 40.705C92.6114 40.705 93.1164 40.835 93.5664 41.095C94.0264 41.355 94.3914 41.715 94.6614 42.175C94.9314 42.635 95.0664 43.16 95.0664 43.75V49H93.3714V44.215C93.3714 43.805 93.2964 43.46 93.1464 43.18C93.0064 42.89 92.8064 42.67 92.5464 42.52C92.2964 42.36 92.0014 42.28 91.6614 42.28C91.3214 42.28 91.0214 42.36 90.7614 42.52C90.5014 42.67 90.2964 42.89 90.1464 43.18C89.9964 43.47 89.9214 43.815 89.9214 44.215V49H88.2414V44.215C88.2414 43.805 88.1664 43.46 88.0164 43.18C87.8764 42.89 87.6764 42.67 87.4164 42.52C87.1664 42.36 86.8664 42.28 86.5164 42.28C86.1764 42.28 85.8764 42.36 85.6164 42.52C85.3564 42.67 85.1514 42.89 85.0014 43.18C84.8614 43.47 84.7914 43.815 84.7914 44.215V49H83.0964ZM96.8806 49V40.885H98.5756V49H96.8806ZM96.8806 39.775V37.825H98.5756V39.775H96.8806ZM100.557 49V40.885H102.177V42.475L101.982 42.265C102.182 41.755 102.502 41.37 102.942 41.11C103.382 40.84 103.892 40.705 104.472 40.705C105.072 40.705 105.602 40.835 106.062 41.095C106.522 41.355 106.882 41.715 107.142 42.175C107.402 42.635 107.532 43.165 107.532 43.765V49H105.852V44.215C105.852 43.805 105.777 43.46 105.627 43.18C105.477 42.89 105.262 42.67 104.982 42.52C104.712 42.36 104.402 42.28 104.052 42.28C103.702 42.28 103.387 42.36 103.107 42.52C102.837 42.67 102.627 42.89 102.477 43.18C102.327 43.47 102.252 43.815 102.252 44.215V49H100.557ZM112.856 49.09C112.006 49.09 111.346 48.85 110.876 48.37C110.406 47.89 110.171 47.215 110.171 46.345V42.415H108.746V40.885H108.971C109.351 40.885 109.646 40.775 109.856 40.555C110.066 40.335 110.171 40.035 110.171 39.655V39.025H111.866V40.885H113.711V42.415H111.866V46.27C111.866 46.55 111.911 46.79 112.001 46.99C112.091 47.18 112.236 47.33 112.436 47.44C112.636 47.54 112.896 47.59 113.216 47.59C113.296 47.59 113.386 47.585 113.486 47.575C113.586 47.565 113.681 47.555 113.771 47.545V49C113.631 49.02 113.476 49.04 113.306 49.06C113.136 49.08 112.986 49.09 112.856 49.09ZM119.194 49.18C118.414 49.18 117.699 48.995 117.049 48.625C116.409 48.255 115.899 47.75 115.519 47.11C115.139 46.47 114.949 45.745 114.949 44.935C114.949 44.115 115.139 43.39 115.519 42.76C115.899 42.12 116.409 41.62 117.049 41.26C117.689 40.89 118.404 40.705 119.194 40.705C119.994 40.705 120.709 40.89 121.339 41.26C121.979 41.62 122.484 42.12 122.854 42.76C123.234 43.39 123.424 44.115 123.424 44.935C123.424 45.755 123.234 46.485 122.854 47.125C122.474 47.765 121.964 48.27 121.324 48.64C120.684 49 119.974 49.18 119.194 49.18ZM119.194 47.605C119.674 47.605 120.099 47.49 120.469 47.26C120.839 47.03 121.129 46.715 121.339 46.315C121.559 45.905 121.669 45.445 121.669 44.935C121.669 44.425 121.559 43.97 121.339 43.57C121.129 43.17 120.839 42.855 120.469 42.625C120.099 42.395 119.674 42.28 119.194 42.28C118.724 42.28 118.299 42.395 117.919 42.625C117.549 42.855 117.254 43.17 117.034 43.57C116.824 43.97 116.719 44.425 116.719 44.935C116.719 45.445 116.824 45.905 117.034 46.315C117.254 46.715 117.549 47.03 117.919 47.26C118.299 47.49 118.724 47.605 119.194 47.605ZM125.079 49V40.885H126.699V42.475L126.504 42.265C126.704 41.755 127.024 41.37 127.464 41.11C127.904 40.84 128.414 40.705 128.994 40.705C129.594 40.705 130.124 40.835 130.584 41.095C131.044 41.355 131.404 41.715 131.664 42.175C131.924 42.635 132.054 43.165 132.054 43.765V49H130.374V44.215C130.374 43.805 130.299 43.46 130.149 43.18C129.999 42.89 129.784 42.67 129.504 42.52C129.234 42.36 128.924 42.28 128.574 42.28C128.224 42.28 127.909 42.36 127.629 42.52C127.359 42.67 127.149 42.89 126.999 43.18C126.849 43.47 126.774 43.815 126.774 44.215V49H125.079ZM136.655 49V37.825H140.72C141.47 37.825 142.13 37.965 142.7 38.245C143.27 38.515 143.715 38.915 144.035 39.445C144.365 39.965 144.53 40.59 144.53 41.32C144.53 42.09 144.335 42.75 143.945 43.3C143.565 43.85 143.05 44.25 142.4 44.5L144.98 49H142.97L140.225 44.125L141.38 44.8H138.425V49H136.655ZM138.425 43.225H140.75C141.16 43.225 141.515 43.145 141.815 42.985C142.115 42.825 142.345 42.605 142.505 42.325C142.675 42.035 142.76 41.695 142.76 41.305C142.76 40.915 142.675 40.58 142.505 40.3C142.345 40.01 142.115 39.79 141.815 39.64C141.515 39.48 141.16 39.4 140.75 39.4H138.425V43.225ZM148.734 49.18C148.184 49.18 147.699 49.085 147.279 48.895C146.869 48.695 146.549 48.425 146.319 48.085C146.089 47.735 145.974 47.325 145.974 46.855C145.974 46.415 146.069 46.02 146.259 45.67C146.459 45.32 146.764 45.025 147.174 44.785C147.584 44.545 148.099 44.375 148.719 44.275L151.539 43.81V45.145L149.049 45.58C148.599 45.66 148.269 45.805 148.059 46.015C147.849 46.215 147.744 46.475 147.744 46.795C147.744 47.105 147.859 47.36 148.089 47.56C148.329 47.75 148.634 47.845 149.004 47.845C149.464 47.845 149.864 47.745 150.204 47.545C150.554 47.345 150.824 47.08 151.014 46.75C151.204 46.41 151.299 46.035 151.299 45.625V43.54C151.299 43.14 151.149 42.815 150.849 42.565C150.559 42.305 150.169 42.175 149.679 42.175C149.229 42.175 148.834 42.295 148.494 42.535C148.164 42.765 147.919 43.065 147.759 43.435L146.349 42.73C146.499 42.33 146.744 41.98 147.084 41.68C147.424 41.37 147.819 41.13 148.269 40.96C148.729 40.79 149.214 40.705 149.724 40.705C150.364 40.705 150.929 40.825 151.419 41.065C151.919 41.305 152.304 41.64 152.574 42.07C152.854 42.49 152.994 42.98 152.994 43.54V49H151.374V47.53L151.719 47.575C151.529 47.905 151.284 48.19 150.984 48.43C150.694 48.67 150.359 48.855 149.979 48.985C149.609 49.115 149.194 49.18 148.734 49.18ZM158.831 49.18C158.021 49.18 157.301 48.995 156.671 48.625C156.051 48.245 155.556 47.735 155.186 47.095C154.826 46.455 154.646 45.73 154.646 44.92C154.646 44.12 154.826 43.4 155.186 42.76C155.546 42.12 156.041 41.62 156.671 41.26C157.301 40.89 158.021 40.705 158.831 40.705C159.381 40.705 159.896 40.805 160.376 41.005C160.856 41.195 161.271 41.46 161.621 41.8C161.981 42.14 162.246 42.535 162.416 42.985L160.931 43.675C160.761 43.255 160.486 42.92 160.106 42.67C159.736 42.41 159.311 42.28 158.831 42.28C158.371 42.28 157.956 42.395 157.586 42.625C157.226 42.845 156.941 43.16 156.731 43.57C156.521 43.97 156.416 44.425 156.416 44.935C156.416 45.445 156.521 45.905 156.731 46.315C156.941 46.715 157.226 47.03 157.586 47.26C157.956 47.49 158.371 47.605 158.831 47.605C159.321 47.605 159.746 47.48 160.106 47.23C160.476 46.97 160.751 46.625 160.931 46.195L162.416 46.9C162.256 47.33 161.996 47.72 161.636 48.07C161.286 48.41 160.871 48.68 160.391 48.88C159.911 49.08 159.391 49.18 158.831 49.18ZM164.073 49V37.645H165.768V45.25L165.108 45.085L169.173 40.885H171.288L168.228 44.14L171.423 49H169.473L166.623 44.695L167.628 44.56L165.228 47.11L165.768 45.985V49H164.073ZM176.247 49.18C175.437 49.18 174.717 48.995 174.087 48.625C173.467 48.245 172.982 47.735 172.632 47.095C172.282 46.445 172.107 45.72 172.107 44.92C172.107 44.1 172.282 43.375 172.632 42.745C172.992 42.115 173.472 41.62 174.072 41.26C174.672 40.89 175.352 40.705 176.112 40.705C176.722 40.705 177.267 40.81 177.747 41.02C178.227 41.23 178.632 41.52 178.962 41.89C179.292 42.25 179.542 42.665 179.712 43.135C179.892 43.605 179.982 44.105 179.982 44.635C179.982 44.765 179.977 44.9 179.967 45.04C179.957 45.18 179.937 45.31 179.907 45.43H173.442V44.08H178.947L178.137 44.695C178.237 44.205 178.202 43.77 178.032 43.39C177.872 43 177.622 42.695 177.282 42.475C176.952 42.245 176.562 42.13 176.112 42.13C175.662 42.13 175.262 42.245 174.912 42.475C174.562 42.695 174.292 43.015 174.102 43.435C173.912 43.845 173.837 44.345 173.877 44.935C173.827 45.485 173.902 45.965 174.102 46.375C174.312 46.785 174.602 47.105 174.972 47.335C175.352 47.565 175.782 47.68 176.262 47.68C176.752 47.68 177.167 47.57 177.507 47.35C177.857 47.13 178.132 46.845 178.332 46.495L179.712 47.17C179.552 47.55 179.302 47.895 178.962 48.205C178.632 48.505 178.232 48.745 177.762 48.925C177.302 49.095 176.797 49.18 176.247 49.18ZM185.146 49.09C184.296 49.09 183.636 48.85 183.166 48.37C182.696 47.89 182.461 47.215 182.461 46.345V42.415H181.036V40.885H181.261C181.641 40.885 181.936 40.775 182.146 40.555C182.356 40.335 182.461 40.035 182.461 39.655V39.025H184.156V40.885H186.001V42.415H184.156V46.27C184.156 46.55 184.201 46.79 184.291 46.99C184.381 47.18 184.526 47.33 184.726 47.44C184.926 47.54 185.186 47.59 185.506 47.59C185.586 47.59 185.676 47.585 185.776 47.575C185.876 47.565 185.971 47.555 186.061 47.545V49C185.921 49.02 185.766 49.04 185.596 49.06C185.426 49.08 185.276 49.09 185.146 49.09Z" fill="black"/>
<path d="M53.924 73V64.06H57.176C57.776 64.06 58.304 64.172 58.76 64.396C59.216 64.612 59.572 64.932 59.828 65.356C60.092 65.772 60.224 66.272 60.224 66.856C60.224 67.472 60.068 68 59.756 68.44C59.452 68.88 59.04 69.2 58.52 69.4L60.584 73H58.976L56.78 69.1L57.704 69.64H55.34V73H53.924ZM55.34 68.38H57.2C57.528 68.38 57.812 68.316 58.052 68.188C58.292 68.06 58.476 67.884 58.604 67.66C58.74 67.428 58.808 67.156 58.808 66.844C58.808 66.532 58.74 66.264 58.604 66.04C58.476 65.808 58.292 65.632 58.052 65.512C57.812 65.384 57.528 65.32 57.2 65.32H55.34V68.38ZM61.6436 75.4V66.508H62.9396V67.852L62.7836 67.54C63.0236 67.172 63.3436 66.884 63.7436 66.676C64.1436 66.468 64.5996 66.364 65.1116 66.364C65.7276 66.364 66.2796 66.512 66.7676 66.808C67.2636 67.104 67.6516 67.508 67.9316 68.02C68.2196 68.532 68.3636 69.108 68.3636 69.748C68.3636 70.388 68.2196 70.964 67.9316 71.476C67.6516 71.988 67.2676 72.396 66.7796 72.7C66.2916 72.996 65.7356 73.144 65.1116 73.144C64.6076 73.144 64.1476 73.04 63.7316 72.832C63.3236 72.624 63.0076 72.324 62.7836 71.932L62.9996 71.68V75.4H61.6436ZM64.9796 71.884C65.3636 71.884 65.7036 71.792 65.9996 71.608C66.2956 71.424 66.5276 71.172 66.6956 70.852C66.8716 70.524 66.9596 70.156 66.9596 69.748C66.9596 69.34 66.8716 68.976 66.6956 68.656C66.5276 68.336 66.2956 68.084 65.9996 67.9C65.7036 67.716 65.3636 67.624 64.9796 67.624C64.6036 67.624 64.2636 67.716 63.9596 67.9C63.6636 68.084 63.4276 68.336 63.2516 68.656C63.0836 68.976 62.9996 69.34 62.9996 69.748C62.9996 70.156 63.0836 70.524 63.2516 70.852C63.4276 71.172 63.6636 71.424 63.9596 71.608C64.2636 71.792 64.6036 71.884 64.9796 71.884ZM69.4906 73V71.98L71.9386 69.364C72.4186 68.852 72.7946 68.44 73.0666 68.128C73.3466 67.808 73.5466 67.528 73.6666 67.288C73.7946 67.048 73.8586 66.796 73.8586 66.532C73.8586 66.1 73.7266 65.768 73.4626 65.536C73.1986 65.296 72.8586 65.176 72.4426 65.176C72.0106 65.176 71.6386 65.3 71.3266 65.548C71.0146 65.788 70.7986 66.14 70.6786 66.604L69.4306 66.244C69.5266 65.772 69.7186 65.364 70.0066 65.02C70.2946 64.668 70.6466 64.396 71.0626 64.204C71.4866 64.012 71.9426 63.916 72.4306 63.916C72.9986 63.916 73.4946 64.024 73.9186 64.24C74.3426 64.448 74.6706 64.74 74.9026 65.116C75.1426 65.492 75.2626 65.928 75.2626 66.424C75.2626 66.752 75.1986 67.072 75.0706 67.384C74.9506 67.688 74.7626 68.012 74.5066 68.356C74.2506 68.692 73.9226 69.072 73.5226 69.496L71.3626 71.8H75.4306V73H69.4906ZM77.4545 73V71.44H78.8345V73H77.4545ZM84.5307 73.144C83.8187 73.144 83.1947 72.952 82.6587 72.568C82.1227 72.176 81.7027 71.636 81.3987 70.948C81.1027 70.252 80.9547 69.444 80.9547 68.524C80.9547 67.596 81.1027 66.788 81.3987 66.1C81.7027 65.412 82.1187 64.876 82.6467 64.492C83.1827 64.108 83.8067 63.916 84.5187 63.916C85.2307 63.916 85.8507 64.108 86.3787 64.492C86.9147 64.876 87.3307 65.416 87.6267 66.112C87.9307 66.8 88.0827 67.604 88.0827 68.524C88.0827 69.444 87.9347 70.252 87.6387 70.948C87.3427 71.636 86.9267 72.176 86.3907 72.568C85.8627 72.952 85.2427 73.144 84.5307 73.144ZM84.5307 71.848C84.9707 71.848 85.3507 71.712 85.6707 71.44C85.9907 71.168 86.2387 70.784 86.4147 70.288C86.5907 69.792 86.6787 69.204 86.6787 68.524C86.6787 67.844 86.5907 67.256 86.4147 66.76C86.2387 66.264 85.9907 65.88 85.6707 65.608C85.3507 65.336 84.9667 65.2 84.5187 65.2C84.0787 65.2 83.6987 65.336 83.3787 65.608C83.0587 65.88 82.8107 66.264 82.6347 66.76C82.4587 67.256 82.3707 67.844 82.3707 68.524C82.3707 69.196 82.4587 69.784 82.6347 70.288C82.8107 70.784 83.0587 71.168 83.3787 71.44C83.7067 71.712 84.0907 71.848 84.5307 71.848ZM93.1205 73.144C92.4085 73.144 91.7845 72.952 91.2485 72.568C90.7125 72.176 90.2925 71.636 89.9885 70.948C89.6925 70.252 89.5445 69.444 89.5445 68.524C89.5445 67.596 89.6925 66.788 89.9885 66.1C90.2925 65.412 90.7085 64.876 91.2365 64.492C91.7725 64.108 92.3965 63.916 93.1085 63.916C93.8205 63.916 94.4405 64.108 94.9685 64.492C95.5045 64.876 95.9205 65.416 96.2165 66.112C96.5205 66.8 96.6725 67.604 96.6725 68.524C96.6725 69.444 96.5245 70.252 96.2285 70.948C95.9325 71.636 95.5165 72.176 94.9805 72.568C94.4525 72.952 93.8325 73.144 93.1205 73.144ZM93.1205 71.848C93.5605 71.848 93.9405 71.712 94.2605 71.44C94.5805 71.168 94.8285 70.784 95.0045 70.288C95.1805 69.792 95.2685 69.204 95.2685 68.524C95.2685 67.844 95.1805 67.256 95.0045 66.76C94.8285 66.264 94.5805 65.88 94.2605 65.608C93.9405 65.336 93.5565 65.2 93.1085 65.2C92.6685 65.2 92.2885 65.336 91.9685 65.608C91.6485 65.88 91.4005 66.264 91.2245 66.76C91.0485 67.256 90.9605 67.844 90.9605 68.524C90.9605 69.196 91.0485 69.784 91.2245 70.288C91.4005 70.784 91.6485 71.168 91.9685 71.44C92.2965 71.712 92.6805 71.848 93.1205 71.848ZM101.71 73.144C100.998 73.144 100.374 72.952 99.8383 72.568C99.3023 72.176 98.8823 71.636 98.5783 70.948C98.2823 70.252 98.1343 69.444 98.1343 68.524C98.1343 67.596 98.2823 66.788 98.5783 66.1C98.8823 65.412 99.2983 64.876 99.8263 64.492C100.362 64.108 100.986 63.916 101.698 63.916C102.41 63.916 103.03 64.108 103.558 64.492C104.094 64.876 104.51 65.416 104.806 66.112C105.11 66.8 105.262 67.604 105.262 68.524C105.262 69.444 105.114 70.252 104.818 70.948C104.522 71.636 104.106 72.176 103.57 72.568C103.042 72.952 102.422 73.144 101.71 73.144ZM101.71 71.848C102.15 71.848 102.53 71.712 102.85 71.44C103.17 71.168 103.418 70.784 103.594 70.288C103.77 69.792 103.858 69.204 103.858 68.524C103.858 67.844 103.77 67.256 103.594 66.76C103.418 66.264 103.17 65.88 102.85 65.608C102.53 65.336 102.146 65.2 101.698 65.2C101.258 65.2 100.878 65.336 100.558 65.608C100.238 65.88 99.9903 66.264 99.8143 66.76C99.6383 67.256 99.5503 67.844 99.5503 68.524C99.5503 69.196 99.6383 69.784 99.8143 70.288C99.9903 70.784 100.238 71.168 100.558 71.44C100.886 71.712 101.27 71.848 101.71 71.848ZM107.384 73V71.44H108.764V73H107.384ZM114.46 73.144C113.748 73.144 113.124 72.952 112.588 72.568C112.052 72.176 111.632 71.636 111.328 70.948C111.032 70.252 110.884 69.444 110.884 68.524C110.884 67.596 111.032 66.788 111.328 66.1C111.632 65.412 112.048 64.876 112.576 64.492C113.112 64.108 113.736 63.916 114.448 63.916C115.16 63.916 115.78 64.108 116.308 64.492C116.844 64.876 117.26 65.416 117.556 66.112C117.86 66.8 118.012 67.604 118.012 68.524C118.012 69.444 117.864 70.252 117.568 70.948C117.272 71.636 116.856 72.176 116.32 72.568C115.792 72.952 115.172 73.144 114.46 73.144ZM114.46 71.848C114.9 71.848 115.28 71.712 115.6 71.44C115.92 71.168 116.168 70.784 116.344 70.288C116.52 69.792 116.608 69.204 116.608 68.524C116.608 67.844 116.52 67.256 116.344 66.76C116.168 66.264 115.92 65.88 115.6 65.608C115.28 65.336 114.896 65.2 114.448 65.2C114.008 65.2 113.628 65.336 113.308 65.608C112.988 65.88 112.74 66.264 112.564 66.76C112.388 67.256 112.3 67.844 112.3 68.524C112.3 69.196 112.388 69.784 112.564 70.288C112.74 70.784 112.988 71.168 113.308 71.44C113.636 71.712 114.02 71.848 114.46 71.848ZM123.05 73.144C122.338 73.144 121.714 72.952 121.178 72.568C120.642 72.176 120.222 71.636 119.918 70.948C119.622 70.252 119.474 69.444 119.474 68.524C119.474 67.596 119.622 66.788 119.918 66.1C120.222 65.412 120.638 64.876 121.166 64.492C121.702 64.108 122.326 63.916 123.038 63.916C123.75 63.916 124.37 64.108 124.898 64.492C125.434 64.876 125.85 65.416 126.146 66.112C126.45 66.8 126.602 67.604 126.602 68.524C126.602 69.444 126.454 70.252 126.158 70.948C125.862 71.636 125.446 72.176 124.91 72.568C124.382 72.952 123.762 73.144 123.05 73.144ZM123.05 71.848C123.49 71.848 123.87 71.712 124.19 71.44C124.51 71.168 124.758 70.784 124.934 70.288C125.11 69.792 125.198 69.204 125.198 68.524C125.198 67.844 125.11 67.256 124.934 66.76C124.758 66.264 124.51 65.88 124.19 65.608C123.87 65.336 123.486 65.2 123.038 65.2C122.598 65.2 122.218 65.336 121.898 65.608C121.578 65.88 121.33 66.264 121.154 66.76C120.978 67.256 120.89 67.844 120.89 68.524C120.89 69.196 120.978 69.784 121.154 70.288C121.33 70.784 121.578 71.168 121.898 71.44C122.226 71.712 122.61 71.848 123.05 71.848ZM131.64 73.144C130.928 73.144 130.304 72.952 129.768 72.568C129.232 72.176 128.812 71.636 128.508 70.948C128.212 70.252 128.064 69.444 128.064 68.524C128.064 67.596 128.212 66.788 128.508 66.1C128.812 65.412 129.228 64.876 129.756 64.492C130.292 64.108 130.916 63.916 131.628 63.916C132.34 63.916 132.96 64.108 133.488 64.492C134.024 64.876 134.44 65.416 134.736 66.112C135.04 66.8 135.192 67.604 135.192 68.524C135.192 69.444 135.044 70.252 134.748 70.948C134.452 71.636 134.036 72.176 133.5 72.568C132.972 72.952 132.352 73.144 131.64 73.144ZM131.64 71.848C132.08 71.848 132.46 71.712 132.78 71.44C133.1 71.168 133.348 70.784 133.524 70.288C133.7 69.792 133.788 69.204 133.788 68.524C133.788 67.844 133.7 67.256 133.524 66.76C133.348 66.264 133.1 65.88 132.78 65.608C132.46 65.336 132.076 65.2 131.628 65.2C131.188 65.2 130.808 65.336 130.488 65.608C130.168 65.88 129.92 66.264 129.744 66.76C129.568 67.256 129.48 67.844 129.48 68.524C129.48 69.196 129.568 69.784 129.744 70.288C129.92 70.784 130.168 71.168 130.488 71.44C130.816 71.712 131.2 71.848 131.64 71.848Z" fill="black"/>
<path d="M61.3333 88.1666C61.3333 90.247 59.0254 92.4137 58.2504 93.0828C58.1782 93.1371 58.0903 93.1665 58 93.1665C57.9096 93.1665 57.8217 93.1371 57.7495 93.0828C56.9745 92.4137 54.6666 90.247 54.6666 88.1666C54.6666 87.2825 55.0178 86.4347 55.6429 85.8096C56.2681 85.1844 57.1159 84.8333 58 84.8333C58.884 84.8333 59.7319 85.1844 60.357 85.8096C60.9821 86.4347 61.3333 87.2825 61.3333 88.1666Z" stroke="#52525B" stroke-linecap="round" stroke-linejoin="round"/>
<path d="M58 89.4166C58.6903 89.4166 59.25 88.8569 59.25 88.1666C59.25 87.4762 58.6903 86.9166 58 86.9166C57.3096 86.9166 56.75 87.4762 56.75 88.1666C56.75 88.8569 57.3096 89.4166 58 89.4166Z" stroke="#52525B" stroke-linecap="round" stroke-linejoin="round"/>
<path d="M66.539 92V86.785H69.976V87.52H67.365V89.018H69.836V89.753H67.365V91.265H69.976V92H66.539ZM71.8001 92.084C71.5434 92.084 71.3171 92.0397 71.1211 91.951C70.9298 91.8577 70.7804 91.7317 70.6731 91.573C70.5658 91.4097 70.5121 91.2183 70.5121 90.999C70.5121 90.7937 70.5564 90.6093 70.6451 90.446C70.7384 90.2827 70.8808 90.145 71.0721 90.033C71.2634 89.921 71.5038 89.8417 71.7931 89.795L73.1091 89.578V90.201L71.9471 90.404C71.7371 90.4413 71.5831 90.509 71.4851 90.607C71.3871 90.7003 71.3381 90.8217 71.3381 90.971C71.3381 91.1157 71.3918 91.2347 71.4991 91.328C71.6111 91.4167 71.7534 91.461 71.9261 91.461C72.1408 91.461 72.3274 91.4143 72.4861 91.321C72.6494 91.2277 72.7754 91.104 72.8641 90.95C72.9528 90.7913 72.9971 90.6163 72.9971 90.425V89.452C72.9971 89.2653 72.9271 89.1137 72.7871 88.997C72.6518 88.8757 72.4698 88.815 72.2411 88.815C72.0311 88.815 71.8468 88.871 71.6881 88.983C71.5341 89.0903 71.4198 89.2303 71.3451 89.403L70.6871 89.074C70.7571 88.8873 70.8714 88.724 71.0301 88.584C71.1888 88.4393 71.3731 88.3273 71.5831 88.248C71.7978 88.1687 72.0241 88.129 72.2621 88.129C72.5608 88.129 72.8244 88.185 73.0531 88.297C73.2864 88.409 73.4661 88.5653 73.5921 88.766C73.7228 88.962 73.7881 89.1907 73.7881 89.452V92H73.0321V91.314L73.1931 91.335C73.1044 91.489 72.9901 91.622 72.8501 91.734C72.7148 91.846 72.5584 91.9323 72.3811 91.993C72.2084 92.0537 72.0148 92.084 71.8001 92.084ZM76.113 92.084C75.7256 92.084 75.385 91.9883 75.091 91.797C74.8016 91.6057 74.5986 91.349 74.482 91.027L75.091 90.74C75.1936 90.9547 75.3336 91.125 75.511 91.251C75.693 91.377 75.8936 91.44 76.113 91.44C76.2996 91.44 76.4513 91.398 76.568 91.314C76.6846 91.23 76.743 91.1157 76.743 90.971C76.743 90.8777 76.7173 90.803 76.666 90.747C76.6146 90.6863 76.5493 90.6373 76.47 90.6C76.3953 90.5627 76.3183 90.5347 76.239 90.516L75.644 90.348C75.3173 90.2547 75.0723 90.1147 74.909 89.928C74.7503 89.7367 74.671 89.515 74.671 89.263C74.671 89.0343 74.7293 88.836 74.846 88.668C74.9626 88.4953 75.1236 88.3623 75.329 88.269C75.5343 88.1757 75.7653 88.129 76.022 88.129C76.3673 88.129 76.6753 88.2153 76.946 88.388C77.2166 88.556 77.408 88.7917 77.52 89.095L76.911 89.382C76.8363 89.2 76.7173 89.0553 76.554 88.948C76.3953 88.8407 76.2156 88.787 76.015 88.787C75.8423 88.787 75.7046 88.829 75.602 88.913C75.4993 88.9923 75.448 89.0973 75.448 89.228C75.448 89.3167 75.4713 89.3913 75.518 89.452C75.5646 89.508 75.6253 89.5547 75.7 89.592C75.7746 89.6247 75.8516 89.6527 75.931 89.676L76.547 89.858C76.8596 89.9467 77.1 90.0867 77.268 90.278C77.436 90.4647 77.52 90.6887 77.52 90.95C77.52 91.174 77.4593 91.3723 77.338 91.545C77.2213 91.713 77.058 91.846 76.848 91.944C76.638 92.0373 76.393 92.084 76.113 92.084ZM79.933 92.042C79.5363 92.042 79.2283 91.93 79.009 91.706C78.7897 91.482 78.68 91.167 78.68 90.761V88.927H78.015V88.213H78.12C78.2973 88.213 78.435 88.1617 78.533 88.059C78.631 87.9563 78.68 87.8163 78.68 87.639V87.345H79.471V88.213H80.332V88.927H79.471V90.726C79.471 90.8567 79.492 90.9687 79.534 91.062C79.576 91.1507 79.6437 91.2207 79.737 91.272C79.8303 91.3187 79.9517 91.342 80.101 91.342C80.1383 91.342 80.1803 91.3397 80.227 91.335C80.2737 91.3303 80.318 91.3257 80.36 91.321V92C80.2947 92.0093 80.2223 92.0187 80.143 92.028C80.0637 92.0373 79.9937 92.042 79.933 92.042ZM82.2016 92V91.23H82.5026C82.7359 91.23 82.9226 91.1623 83.0626 91.027C83.2026 90.887 83.2726 90.7003 83.2726 90.467V86.785H84.0916V90.439C84.0916 90.7563 84.0262 91.0317 83.8956 91.265C83.7696 91.4983 83.5852 91.6803 83.3426 91.811C83.1046 91.937 82.8246 92 82.5026 92H82.2016ZM86.2171 92.084C85.9604 92.084 85.7341 92.0397 85.5381 91.951C85.3468 91.8577 85.1974 91.7317 85.0901 91.573C84.9828 91.4097 84.9291 91.2183 84.9291 90.999C84.9291 90.7937 84.9734 90.6093 85.0621 90.446C85.1554 90.2827 85.2978 90.145 85.4891 90.033C85.6804 89.921 85.9208 89.8417 86.2101 89.795L87.5261 89.578V90.201L86.3641 90.404C86.1541 90.4413 86.0001 90.509 85.9021 90.607C85.8041 90.7003 85.7551 90.8217 85.7551 90.971C85.7551 91.1157 85.8088 91.2347 85.9161 91.328C86.0281 91.4167 86.1704 91.461 86.3431 91.461C86.5578 91.461 86.7444 91.4143 86.9031 91.321C87.0664 91.2277 87.1924 91.104 87.2811 90.95C87.3698 90.7913 87.4141 90.6163 87.4141 90.425V89.452C87.4141 89.2653 87.3441 89.1137 87.2041 88.997C87.0688 88.8757 86.8868 88.815 86.6581 88.815C86.4481 88.815 86.2638 88.871 86.1051 88.983C85.9511 89.0903 85.8368 89.2303 85.7621 89.403L85.1041 89.074C85.1741 88.8873 85.2884 88.724 85.4471 88.584C85.6058 88.4393 85.7901 88.3273 86.0001 88.248C86.2148 88.1687 86.4411 88.129 86.6791 88.129C86.9778 88.129 87.2414 88.185 87.4701 88.297C87.7034 88.409 87.8831 88.5653 88.0091 88.766C88.1398 88.962 88.2051 89.1907 88.2051 89.452V92H87.4491V91.314L87.6101 91.335C87.5214 91.489 87.4071 91.622 87.2671 91.734C87.1318 91.846 86.9754 91.9323 86.7981 91.993C86.6254 92.0537 86.4318 92.084 86.2171 92.084ZM89.13 92V86.701H89.921V90.25L89.613 90.173L91.51 88.213H92.497L91.069 89.732L92.56 92H91.65L90.32 89.991L90.789 89.928L89.669 91.118L89.921 90.593V92H89.13ZM94.2356 92.084C93.979 92.084 93.7526 92.0397 93.5566 91.951C93.3653 91.8577 93.216 91.7317 93.1086 91.573C93.0013 91.4097 92.9476 91.2183 92.9476 90.999C92.9476 90.7937 92.992 90.6093 93.0806 90.446C93.174 90.2827 93.3163 90.145 93.5076 90.033C93.699 89.921 93.9393 89.8417 94.2286 89.795L95.5446 89.578V90.201L94.3826 90.404C94.1726 90.4413 94.0186 90.509 93.9206 90.607C93.8226 90.7003 93.7736 90.8217 93.7736 90.971C93.7736 91.1157 93.8273 91.2347 93.9346 91.328C94.0466 91.4167 94.189 91.461 94.3616 91.461C94.5763 91.461 94.763 91.4143 94.9216 91.321C95.085 91.2277 95.211 91.104 95.2996 90.95C95.3883 90.7913 95.4326 90.6163 95.4326 90.425V89.452C95.4326 89.2653 95.3626 89.1137 95.2226 88.997C95.0873 88.8757 94.9053 88.815 94.6766 88.815C94.4666 88.815 94.2823 88.871 94.1236 88.983C93.9696 89.0903 93.8553 89.2303 93.7806 89.403L93.1226 89.074C93.1926 88.8873 93.307 88.724 93.4656 88.584C93.6243 88.4393 93.8086 88.3273 94.0186 88.248C94.2333 88.1687 94.4596 88.129 94.6976 88.129C94.9963 88.129 95.26 88.185 95.4886 88.297C95.722 88.409 95.9016 88.5653 96.0276 88.766C96.1583 88.962 96.2236 89.1907 96.2236 89.452V92H95.4676V91.314L95.6286 91.335C95.54 91.489 95.4256 91.622 95.2856 91.734C95.1503 91.846 94.994 91.9323 94.8166 91.993C94.644 92.0537 94.4503 92.084 94.2356 92.084ZM97.1485 92V88.213H97.9045V88.976L97.8345 88.864C97.9185 88.6167 98.0539 88.4393 98.2405 88.332C98.4272 88.22 98.6512 88.164 98.9125 88.164H99.1435V88.885H98.8145C98.5532 88.885 98.3409 88.9667 98.1775 89.13C98.0189 89.2887 97.9395 89.5173 97.9395 89.816V92H97.1485ZM101.391 92.042C100.994 92.042 100.686 91.93 100.467 91.706C100.248 91.482 100.138 91.167 100.138 90.761V88.927H99.473V88.213H99.578C99.7553 88.213 99.893 88.1617 99.991 88.059C100.089 87.9563 100.138 87.8163 100.138 87.639V87.345H100.929V88.213H101.79V88.927H100.929V90.726C100.929 90.8567 100.95 90.9687 100.992 91.062C101.034 91.1507 101.102 91.2207 101.195 91.272C101.288 91.3187 101.41 91.342 101.559 91.342C101.596 91.342 101.638 91.3397 101.685 91.335C101.732 91.3303 101.776 91.3257 101.818 91.321V92C101.753 92.0093 101.68 92.0187 101.601 92.028C101.522 92.0373 101.452 92.042 101.391 92.042ZM103.69 92.084C103.433 92.084 103.207 92.0397 103.011 91.951C102.819 91.8577 102.67 91.7317 102.563 91.573C102.455 91.4097 102.402 91.2183 102.402 90.999C102.402 90.7937 102.446 90.6093 102.535 90.446C102.628 90.2827 102.77 90.145 102.962 90.033C103.153 89.921 103.393 89.8417 103.683 89.795L104.999 89.578V90.201L103.837 90.404C103.627 90.4413 103.473 90.509 103.375 90.607C103.277 90.7003 103.228 90.8217 103.228 90.971C103.228 91.1157 103.281 91.2347 103.389 91.328C103.501 91.4167 103.643 91.461 103.816 91.461C104.03 91.461 104.217 91.4143 104.376 91.321C104.539 91.2277 104.665 91.104 104.754 90.95C104.842 90.7913 104.887 90.6163 104.887 90.425V89.452C104.887 89.2653 104.817 89.1137 104.677 88.997C104.541 88.8757 104.359 88.815 104.131 88.815C103.921 88.815 103.736 88.871 103.578 88.983C103.424 89.0903 103.309 89.2303 103.235 89.403L102.577 89.074C102.647 88.8873 102.761 88.724 102.92 88.584C103.078 88.4393 103.263 88.3273 103.473 88.248C103.687 88.1687 103.914 88.129 104.152 88.129C104.45 88.129 104.714 88.185 104.943 88.297C105.176 88.409 105.356 88.5653 105.482 88.766C105.612 88.962 105.678 89.1907 105.678 89.452V92H104.922V91.314L105.083 91.335C104.994 91.489 104.88 91.622 104.74 91.734C104.604 91.846 104.448 91.9323 104.271 91.993C104.098 92.0537 103.904 92.084 103.69 92.084Z" fill="#525252"/>
</g>
<g filter="url(#filter1_d_675_6572)">
<path d="M198.245 80.3964L264.962 88.4415C268.909 88.9175 271.724 92.5032 271.248 96.4509L269.409 111.701C268.933 115.649 265.347 118.463 261.399 117.987L194.682 109.942C190.734 109.466 187.92 105.88 188.396 101.932L190.235 86.682C190.712 82.7344 194.297 79.9206 198.245 80.3964Z" fill="#A3E635"/>
<path d="M198.245 80.3964L264.962 88.4415C268.909 88.9175 271.724 92.5032 271.248 96.4509L269.409 111.701C268.933 115.649 265.347 118.463 261.399 117.987L194.682 109.942C190.734 109.466 187.92 105.88 188.396 101.932L190.235 86.682C190.712 82.7344 194.297 79.9206 198.245 80.3964Z" stroke="#A3E635" stroke-width="0.96"/>
<path d="M204.907 100.216L205.935 91.6955L207.193 91.8472L209.86 96.671L209.231 96.5951L212.911 92.5368L214.169 92.6885L213.142 101.209L211.804 101.048L212.64 94.1169L213.126 94.3148L209.383 98.3191L209.246 98.3026L206.63 93.5315L207.093 93.448L206.257 100.379L204.907 100.216ZM217.666 101.894C217.049 101.819 216.517 101.612 216.07 101.272C215.632 100.925 215.31 100.492 215.102 99.9718C214.894 99.444 214.828 98.8752 214.901 98.2652C214.977 97.6399 215.177 97.1032 215.501 96.6551C215.834 96.2078 216.245 95.8745 216.736 95.6552C217.228 95.4282 217.763 95.3497 218.342 95.4196C218.808 95.4757 219.213 95.6058 219.56 95.8101C219.907 96.0143 220.189 96.2727 220.407 96.5851C220.625 96.89 220.778 97.2294 220.864 97.6034C220.958 97.9783 220.981 98.3678 220.932 98.7719C220.92 98.871 220.904 98.9735 220.883 99.0793C220.863 99.1852 220.836 99.2825 220.802 99.3712L215.872 98.7768L215.996 97.7474L220.194 98.2536L219.52 98.648C219.641 98.2836 219.654 97.9487 219.56 97.6434C219.473 97.3313 219.311 97.0757 219.072 96.8767C218.841 96.671 218.555 96.5475 218.211 96.5061C217.868 96.4647 217.553 96.5156 217.265 96.6588C216.978 96.7944 216.742 97.0136 216.559 97.3163C216.376 97.6115 216.273 97.9858 216.249 98.4394C216.161 98.8541 216.174 99.227 216.289 99.558C216.411 99.8899 216.603 100.161 216.864 100.37C217.132 100.58 217.45 100.708 217.816 100.752C218.189 100.797 218.516 100.751 218.795 100.614C219.082 100.479 219.318 100.287 219.503 100.038L220.493 100.68C220.336 100.955 220.114 101.195 219.826 101.4C219.547 101.599 219.22 101.745 218.845 101.839C218.478 101.926 218.086 101.945 217.666 101.894ZM224.063 102.665C223.43 102.589 222.892 102.366 222.449 101.995C222.014 101.625 221.733 101.166 221.606 100.617L222.658 100.268C222.783 100.639 222.978 100.945 223.243 101.186C223.516 101.427 223.831 101.57 224.19 101.613C224.495 101.65 224.751 101.611 224.958 101.497C225.165 101.383 225.283 101.207 225.311 100.971C225.33 100.818 225.303 100.691 225.23 100.59C225.158 100.481 225.061 100.388 224.938 100.311C224.824 100.235 224.704 100.174 224.578 100.128L223.639 99.7365C223.123 99.5196 222.75 99.2426 222.52 98.9055C222.299 98.5616 222.213 98.1838 222.263 97.772C222.308 97.3984 222.442 97.0859 222.666 96.8344C222.89 96.5752 223.18 96.3896 223.533 96.2776C223.887 96.1656 224.274 96.1348 224.693 96.1854C225.258 96.2534 225.744 96.4552 226.152 96.7906C226.561 97.1184 226.827 97.5412 226.951 98.0589L225.899 98.4078C225.813 98.0957 225.647 97.8359 225.401 97.6284C225.163 97.4217 224.88 97.2986 224.552 97.2591C224.27 97.2251 224.037 97.2666 223.853 97.3836C223.669 97.493 223.565 97.6544 223.539 97.8679C223.521 98.0128 223.545 98.1394 223.609 98.2477C223.674 98.3484 223.764 98.4366 223.879 98.5123C223.995 98.5804 224.115 98.6413 224.24 98.6951L225.21 99.1138C225.704 99.3203 226.069 99.5964 226.306 99.9421C226.543 100.28 226.637 100.663 226.585 101.09C226.541 101.456 226.403 101.768 226.17 102.026C225.947 102.278 225.654 102.463 225.291 102.581C224.93 102.692 224.52 102.72 224.063 102.665ZM229.915 103.371C229.283 103.295 228.745 103.071 228.302 102.701C227.867 102.331 227.586 101.872 227.459 101.323L228.51 100.974C228.636 101.345 228.831 101.651 229.096 101.891C229.368 102.133 229.684 102.276 230.042 102.319C230.347 102.356 230.603 102.317 230.81 102.203C231.018 102.088 231.136 101.913 231.164 101.677C231.182 101.524 231.155 101.397 231.082 101.296C231.01 101.186 230.913 101.093 230.791 101.017C230.676 100.941 230.556 100.88 230.43 100.834L229.491 100.442C228.976 100.225 228.603 99.9484 228.373 99.6112C228.151 99.2673 228.065 98.8895 228.115 98.4778C228.16 98.1042 228.295 97.7916 228.518 97.5401C228.743 97.281 229.032 97.0954 229.386 96.9833C229.74 96.8713 230.127 96.8406 230.546 96.8911C231.11 96.9592 231.596 97.1609 232.005 97.4964C232.414 97.8242 232.68 98.2469 232.803 98.7646L231.752 99.1135C231.665 98.8015 231.499 98.5416 231.254 98.3341C231.016 98.1275 230.733 98.0044 230.405 97.9648C230.123 97.9308 229.89 97.9723 229.705 98.0893C229.522 98.1987 229.417 98.3602 229.392 98.5737C229.374 98.7185 229.397 98.8451 229.462 98.9535C229.527 99.0541 229.617 99.1423 229.732 99.2181C229.847 99.2861 229.967 99.3471 230.092 99.4008L231.063 99.8195C231.556 100.026 231.922 100.302 232.158 100.648C232.396 100.986 232.489 101.368 232.438 101.795C232.394 102.161 232.255 102.474 232.023 102.732C231.799 102.983 231.506 103.168 231.144 103.287C230.782 103.398 230.373 103.426 229.915 103.371ZM235.333 104.024C234.914 103.974 234.553 103.857 234.25 103.673C233.956 103.483 233.737 103.248 233.593 102.967C233.449 102.679 233.399 102.356 233.443 101.998C233.483 101.662 233.592 101.37 233.769 101.121C233.954 100.872 234.213 100.675 234.548 100.53C234.883 100.385 235.291 100.302 235.773 100.283L237.966 100.188L237.843 101.206L235.905 101.308C235.554 101.328 235.289 101.408 235.11 101.549C234.931 101.682 234.827 101.871 234.798 102.115C234.769 102.351 234.834 102.556 234.991 102.73C235.156 102.897 235.38 102.997 235.662 103.031C236.013 103.074 236.327 103.034 236.605 102.913C236.89 102.793 237.12 102.615 237.295 102.381C237.471 102.139 237.578 101.862 237.616 101.55L237.808 99.9598C237.844 99.6549 237.76 99.3933 237.554 99.1751C237.357 98.9501 237.072 98.8152 236.698 98.7701C236.355 98.7287 236.043 98.7839 235.761 98.9357C235.489 99.0807 235.274 99.2869 235.118 99.5543L234.108 98.8871C234.259 98.5959 234.478 98.3516 234.765 98.1541C235.053 97.949 235.376 97.8023 235.735 97.7141C236.101 97.6267 236.479 97.6065 236.867 97.6534C237.355 97.7123 237.775 97.8557 238.127 98.0837C238.486 98.3127 238.749 98.6035 238.915 98.9562C239.09 99.3022 239.152 99.6887 239.1 100.116L238.598 104.279L237.363 104.13L237.498 103.009L237.757 103.075C237.582 103.309 237.369 103.504 237.118 103.659C236.875 103.816 236.602 103.926 236.301 103.99C236.007 104.055 235.684 104.067 235.333 104.024ZM242.791 107.337C242.341 107.283 241.934 107.16 241.57 106.97C241.207 106.779 240.903 106.537 240.66 106.245C240.416 105.96 240.246 105.638 240.15 105.278L241.399 104.93C241.47 105.232 241.636 105.496 241.895 105.721C242.162 105.946 242.505 106.084 242.924 106.135C243.252 106.174 243.553 106.145 243.828 106.047C244.102 105.956 244.33 105.798 244.512 105.572C244.693 105.354 244.804 105.077 244.844 104.742L245.013 103.347L245.21 103.637C244.948 104.008 244.615 104.273 244.209 104.433C243.81 104.594 243.375 104.646 242.902 104.589C242.33 104.52 241.831 104.324 241.406 104.002C240.981 103.68 240.663 103.271 240.452 102.773C240.249 102.277 240.182 101.739 240.252 101.16C240.323 100.573 240.515 100.066 240.83 99.6397C241.152 99.2144 241.554 98.8954 242.036 98.6828C242.518 98.4702 243.049 98.3988 243.628 98.4687C244.101 98.5257 244.508 98.6792 244.849 98.9292C245.199 99.1725 245.469 99.499 245.659 99.9087L245.449 100.208L245.613 98.8473L246.837 98.9948L246.125 104.896C246.061 105.43 245.874 105.891 245.564 106.279C245.261 106.676 244.87 106.969 244.39 107.159C243.911 107.348 243.378 107.408 242.791 107.337ZM243.195 103.406C243.538 103.447 243.853 103.404 244.139 103.276C244.426 103.141 244.663 102.945 244.848 102.689C245.042 102.426 245.161 102.119 245.203 101.768C245.245 101.418 245.203 101.091 245.077 100.79C244.951 100.489 244.764 100.242 244.517 100.049C244.27 99.8495 243.979 99.7293 243.644 99.6889C243.293 99.6466 242.97 99.6928 242.675 99.8274C242.382 99.9544 242.138 100.149 241.943 100.412C241.758 100.668 241.643 100.975 241.6 101.334C241.559 101.677 241.597 101.999 241.716 102.299C241.842 102.601 242.032 102.852 242.286 103.053C242.542 103.246 242.845 103.364 243.195 103.406ZM250.492 105.852C249.875 105.778 249.343 105.571 248.896 105.231C248.458 104.884 248.136 104.45 247.927 103.93C247.72 103.402 247.654 102.833 247.727 102.224C247.803 101.598 248.003 101.062 248.327 100.613C248.66 100.166 249.071 99.8328 249.562 99.6135C250.053 99.3866 250.589 99.308 251.168 99.3779C251.634 99.434 252.039 99.5642 252.386 99.7684C252.733 99.9727 253.015 100.231 253.233 100.543C253.451 100.848 253.604 101.188 253.69 101.562C253.784 101.937 253.807 102.326 253.758 102.73C253.746 102.829 253.73 102.932 253.709 103.038C253.689 103.144 253.662 103.241 253.628 103.33L248.698 102.735L248.822 101.706L253.02 102.212L252.346 102.606C252.467 102.242 252.48 101.907 252.386 101.602C252.299 101.29 252.137 101.034 251.898 100.835C251.667 100.629 251.381 100.506 251.037 100.464C250.694 100.423 250.379 100.474 250.091 100.617C249.804 100.753 249.568 100.972 249.385 101.275C249.202 101.57 249.099 101.944 249.075 102.398C248.987 102.812 249 103.185 249.115 103.516C249.237 103.848 249.429 104.119 249.69 104.328C249.958 104.539 250.276 104.666 250.641 104.71C251.015 104.755 251.342 104.709 251.621 104.573C251.908 104.437 252.144 104.245 252.329 103.997L253.319 104.638C253.162 104.913 252.94 105.153 252.652 105.359C252.373 105.557 252.046 105.703 251.671 105.797C251.304 105.884 250.912 105.903 250.492 105.852Z" fill="#3F6212"/>
</g>
<rect y="132.574" width="91" height="56" rx="20" transform="rotate(-5.4063 0 132.574)" fill="#A3E635"/>
<path d="M17.4696 169.09L15.785 151.29L19.0345 150.982L19.7694 158.747L27.3436 158.031L26.6087 150.265L29.882 149.956L31.5666 167.756L28.2933 168.066L27.6149 160.898L20.0407 161.615L20.7191 168.783L17.4696 169.09ZM40.4438 167.205C39.1058 167.332 37.9064 167.14 36.8456 166.63C35.7848 166.119 34.9266 165.373 34.2711 164.39C33.6156 163.408 33.2283 162.287 33.1092 161.029C32.9856 159.723 33.1551 158.541 33.6176 157.485C34.0946 156.411 34.791 155.534 35.7069 154.853C36.6387 154.17 37.7099 153.771 38.9205 153.656C39.9399 153.56 40.8478 153.643 41.644 153.905C42.4562 154.166 43.1609 154.565 43.7583 155.103C44.3557 155.641 44.8339 156.279 45.193 157.016C45.5505 157.738 45.7708 158.537 45.8537 159.413C45.8748 159.636 45.8807 159.868 45.8715 160.11C45.8782 160.351 45.8579 160.562 45.8108 160.743L35.7756 161.692L35.5495 159.303L43.8166 158.521L42.4415 159.784C42.5155 159.038 42.4139 158.388 42.1366 157.836C41.8752 157.282 41.4818 156.861 40.9564 156.574C40.4469 156.284 39.8496 156.172 39.1647 156.237C38.5116 156.299 37.946 156.521 37.468 156.904C36.9884 157.271 36.6434 157.785 36.4329 158.448C36.2368 159.093 36.2128 159.859 36.361 160.745C36.3726 161.548 36.5433 162.247 36.8728 162.842C37.2168 163.42 37.6755 163.851 38.2487 164.134C38.8379 164.416 39.4908 164.523 40.2076 164.455C40.9244 164.387 41.5154 164.179 41.9806 163.829C42.4616 163.478 42.8214 163.035 43.0599 162.498L45.7102 163.501C45.5141 164.146 45.1679 164.733 44.6715 165.262C44.1752 165.791 43.5655 166.227 42.8425 166.568C42.1354 166.908 41.3358 167.121 40.4438 167.205ZM48.4043 166.163L46.6925 148.075L49.8225 147.779L51.5343 165.866L48.4043 166.163ZM53.9464 165.638L52.2346 147.551L55.3647 147.255L57.0764 165.342L53.9464 165.638ZM65.8712 164.799C64.5969 164.919 63.4062 164.735 62.2992 164.245C61.208 163.753 60.3036 163.027 59.5859 162.067C58.8841 161.105 58.4714 159.97 58.3478 158.664C58.2242 157.358 58.4168 156.167 58.9256 155.09C59.4503 154.012 60.2025 153.129 61.1821 152.442C62.1617 151.754 63.2966 151.349 64.5869 151.227C65.8612 151.107 67.0439 151.292 68.1351 151.784C69.2262 152.275 70.1227 153.002 70.8244 153.964C71.5406 154.909 71.9613 156.042 72.0864 157.364C72.21 158.67 72.0095 159.862 71.4847 160.941C70.96 162.019 70.2078 162.902 69.2282 163.589C68.2486 164.276 67.1296 164.68 65.8712 164.799ZM65.5999 161.932C66.3008 161.865 66.8982 161.64 67.3922 161.256C67.9021 160.87 68.2805 160.368 68.5274 159.75C68.7887 159.115 68.8839 158.423 68.813 157.674C68.7407 156.909 68.5181 156.255 68.1452 155.712C67.7868 155.151 67.321 154.729 66.7477 154.446C66.1889 154.145 65.5591 154.028 64.8582 154.095C64.1414 154.162 63.5288 154.397 63.0204 154.799C62.5105 155.185 62.1241 155.687 61.8613 156.307C61.6129 156.909 61.5249 157.592 61.5973 158.357C61.6681 159.105 61.8835 159.768 62.2435 160.345C62.6178 160.904 63.0916 161.325 63.6648 161.608C64.2381 161.892 64.8831 161.999 65.5999 161.932ZM75.6871 158.132L74.2984 145.752L77.4762 145.451L78.4348 157.872L75.6871 158.132ZM75.983 163.552L75.6665 160.207L78.8443 159.907L79.1609 163.252L75.983 163.552Z" fill="#F7FEE7"/>
<rect x="202.322" y="131.618" width="57.0195" height="44" rx="20" transform="rotate(14.1084 202.322 131.618)" fill="#F97316"/>
<path d="M213.806 164.406L216.712 152.846L218.822 153.376L217.555 158.419L222.474 159.656L223.741 154.612L225.867 155.147L222.961 166.707L220.836 166.173L222.006 161.518L217.087 160.281L215.917 164.937L213.806 164.406ZM224.706 167.146L226.827 158.704L228.86 159.215L226.738 167.656L224.706 167.146ZM227.065 157.758L227.611 155.585L229.644 156.096L229.098 158.268L227.065 157.758ZM230.226 164.805L232.111 156.716L234.174 157.235L232.01 165.253L230.226 164.805ZM229.205 168.276L229.751 166.104L231.815 166.623L231.269 168.795L229.205 168.276Z" fill="#F7FEE7"/>
<g filter="url(#filter2_dd_675_6572)">
<circle cx="72.2143" cy="237.286" r="12.8" transform="rotate(7.8639 72.2143 237.286)" fill="white"/>
</g>
<g filter="url(#filter3_dd_675_6572)">
<circle cx="42.417" cy="233.17" r="12.8" transform="rotate(7.8639 42.417 233.17)" fill="white"/>
</g>
<path d="M71.7764 240.456C72.9376 232.048 70.7115 223.524 65.5879 216.759C60.4642 209.993 52.8627 205.539 44.4556 204.378C36.0485 203.217 27.5244 205.443 20.7586 210.567C13.9928 215.69 9.53946 223.292 8.37828 231.699L19.1914 233.193C19.9565 227.653 22.8907 222.645 27.3486 219.269C31.8065 215.893 37.4228 214.426 42.9621 215.191C48.5014 215.956 53.5099 218.891 56.8858 223.349C60.2616 227.806 61.7284 233.423 60.9633 238.962L71.7764 240.456Z" fill="#4D7C0F"/>
<path d="M71.7764 240.456C72.9376 232.048 70.7115 223.524 65.5879 216.759C60.4642 209.993 52.8627 205.539 44.4556 204.378C36.0485 203.217 27.5244 205.443 20.7586 210.567C13.9928 215.69 9.53946 223.292 8.37828 231.699L19.1914 233.193C19.9565 227.653 22.8907 222.645 27.3486 219.269C31.8065 215.893 37.4228 214.426 42.9621 215.191C48.5014 215.956 53.5099 218.891 56.8858 223.349C60.2616 227.806 61.7284 233.423 60.9633 238.962L71.7764 240.456Z" fill="#65A30D"/>
<path d="M105.377 245.096C106.539 236.689 104.312 228.165 99.1888 221.399C94.0652 214.634 86.4637 210.18 78.0566 209.019C69.6494 207.858 61.1254 210.084 54.3596 215.208C47.5938 220.331 43.1404 227.933 41.9792 236.34L52.7924 237.833C53.5574 232.294 56.4917 227.286 60.9495 223.91C65.4074 220.534 71.0238 219.067 76.563 219.832C82.1023 220.597 87.1108 223.532 90.4867 227.989C93.8626 232.447 95.3293 238.064 94.5642 243.603L105.377 245.096Z" fill="#A3E635"/>
<circle cx="46.4941" cy="234.056" r="7.36" transform="rotate(7.8639 46.4941 234.056)" fill="#18181B"/>
<circle cx="68.0495" cy="237.034" r="7.36" transform="rotate(7.8639 68.0495 237.034)" fill="#18181B"/>
<path d="M50.9952 248.246C50.9952 248.246 50.9844 252.225 54.5469 252.936C58.2255 253.669 59.8709 249.472 59.8709 249.472" stroke="#84CC16" stroke-width="2.56"/>
<g filter="url(#filter4_dd_675_6572)">
<circle cx="12.8" cy="12.8" r="12.8" transform="matrix(-0.990596 0.13682 0.13682 0.990596 224.47 222.855)" fill="white"/>
</g>
<g filter="url(#filter5_dd_675_6572)">
<circle cx="12.8" cy="12.8" r="12.8" transform="matrix(-0.990596 0.13682 0.13682 0.990596 254.267 218.739)" fill="white"/>
</g>
<path d="M213.979 240.456C212.818 232.048 215.044 223.524 220.168 216.759C225.291 209.993 232.893 205.539 241.3 204.378C249.707 203.217 258.231 205.443 264.997 210.567C271.763 215.69 276.216 223.292 277.377 231.699L266.564 233.193C265.799 227.653 262.865 222.645 258.407 219.269C253.949 215.893 248.333 214.426 242.794 215.191C237.254 215.956 232.246 218.891 228.87 223.349C225.494 227.806 224.027 233.423 224.792 238.962L213.979 240.456Z" fill="#4D7C0F"/>
<path d="M213.979 240.456C212.818 232.048 215.044 223.524 220.168 216.759C225.291 209.993 232.893 205.539 241.3 204.378C249.707 203.217 258.231 205.443 264.997 210.567C271.763 215.69 276.216 223.292 277.377 231.699L266.564 233.193C265.799 227.653 262.865 222.645 258.407 219.269C253.949 215.893 248.333 214.426 242.794 215.191C237.254 215.956 232.246 218.891 228.87 223.349C225.494 227.806 224.027 233.423 224.792 238.962L213.979 240.456Z" fill="#FB923C"/>
<path d="M180.378 245.096C179.217 236.689 181.443 228.165 186.567 221.399C191.691 214.634 199.292 210.18 207.699 209.019C216.106 207.858 224.63 210.084 231.396 215.208C238.162 220.331 242.615 227.933 243.776 236.34L232.963 237.833C232.198 232.294 229.264 227.286 224.806 223.91C220.348 220.534 214.732 219.067 209.193 219.832C203.653 220.597 198.645 223.532 195.269 227.989C191.893 232.447 190.426 238.064 191.191 243.603L180.378 245.096Z" fill="#F97316"/>
<circle cx="7.36" cy="7.36" r="7.36" transform="matrix(-0.990596 0.13682 0.13682 0.990596 245.545 225.759)" fill="#18181B"/>
<circle cx="7.36" cy="7.36" r="7.36" transform="matrix(-0.990596 0.13682 0.13682 0.990596 223.99 228.736)" fill="#18181B"/>
<path d="M234.76 248.246C234.76 248.246 235.062 251.789 231.5 252.5C227.821 253.234 225.5 253 225.5 253" stroke="#F97316" stroke-width="2.56"/>
<defs>
<filter id="filter0_d_675_6572" x="37" y="0" width="208" height="110" filterUnits="userSpaceOnUse" color-interpolation-filters="sRGB">
<feFlood flood-opacity="0" result="BackgroundImageFix"/>
<feColorMatrix in="SourceAlpha" type="matrix" values="0 0 0 0 0 0 0 0 0 0 0 0 0 0 0 0 0 0 127 0" result="hardAlpha"/>
<feOffset dy="4"/>
<feGaussianBlur stdDeviation="2"/>
<feComposite in2="hardAlpha" operator="out"/>
<feColorMatrix type="matrix" values="0 0 0 0 0 0 0 0 0 0 0 0 0 0 0 0 0 0 0.08 0"/>
<feBlend mode="normal" in2="BackgroundImageFix" result="effect1_dropShadow_675_6572"/>
<feBlend mode="normal" in="SourceGraphic" in2="effect1_dropShadow_675_6572" result="shape"/>
</filter>
<filter id="filter1_d_675_6572" x="183.16" y="79" width="93.324" height="48.0631" filterUnits="userSpaceOnUse" color-interpolation-filters="sRGB">
<feFlood flood-opacity="0" result="BackgroundImageFix"/>
<feColorMatrix in="SourceAlpha" type="matrix" values="0 0 0 0 0 0 0 0 0 0 0 0 0 0 0 0 0 0 127 0" result="hardAlpha"/>
<feOffset dy="3.84"/>
<feGaussianBlur stdDeviation="1.92"/>
<feComposite in2="hardAlpha" operator="out"/>
<feColorMatrix type="matrix" values="0 0 0 0 0 0 0 0 0 0 0 0 0 0 0 0 0 0 0.25 0"/>
<feBlend mode="normal" in2="BackgroundImageFix" result="effect1_dropShadow_675_6572"/>
<feBlend mode="normal" in="SourceGraphic" in2="effect1_dropShadow_675_6572" result="shape"/>
</filter>
<filter id="filter2_dd_675_6572" x="56.8527" y="221.924" width="33.2831" height="33.283" filterUnits="userSpaceOnUse" color-interpolation-filters="sRGB">
<feFlood flood-opacity="0" result="BackgroundImageFix"/>
<feColorMatrix in="SourceAlpha" type="matrix" values="0 0 0 0 0 0 0 0 0 0 0 0 0 0 0 0 0 0 127 0" result="hardAlpha"/>
<feOffset dy="2.56"/>
<feGaussianBlur stdDeviation="1.28"/>
<feComposite in2="hardAlpha" operator="out"/>
<feColorMatrix type="matrix" values="0 0 0 0 0 0 0 0 0 0 0 0 0 0 0 0 0 0 0.08 0"/>
<feBlend mode="normal" in2="BackgroundImageFix" result="effect1_dropShadow_675_6572"/>
<feColorMatrix in="SourceAlpha" type="matrix" values="0 0 0 0 0 0 0 0 0 0 0 0 0 0 0 0 0 0 127 0" result="hardAlpha"/>
<feOffset dx="2.56"/>
<feGaussianBlur stdDeviation="1.28"/>
<feComposite in2="hardAlpha" operator="out"/>
<feColorMatrix type="matrix" values="0 0 0 0 0 0 0 0 0 0 0 0 0 0 0 0 0 0 0.08 0"/>
<feBlend mode="normal" in2="effect1_dropShadow_675_6572" result="effect2_dropShadow_675_6572"/>
<feBlend mode="normal" in="SourceGraphic" in2="effect2_dropShadow_675_6572" result="shape"/>
</filter>
<filter id="filter3_dd_675_6572" x="24.4955" y="217.809" width="33.2831" height="33.283" filterUnits="userSpaceOnUse" color-interpolation-filters="sRGB">
<feFlood flood-opacity="0" result="BackgroundImageFix"/>
<feColorMatrix in="SourceAlpha" type="matrix" values="0 0 0 0 0 0 0 0 0 0 0 0 0 0 0 0 0 0 127 0" result="hardAlpha"/>
<feOffset dy="2.56"/>
<feGaussianBlur stdDeviation="1.28"/>
<feComposite in2="hardAlpha" operator="out"/>
<feColorMatrix type="matrix" values="0 0 0 0 0 0 0 0 0 0 0 0 0 0 0 0 0 0 0.08 0"/>
<feBlend mode="normal" in2="BackgroundImageFix" result="effect1_dropShadow_675_6572"/>
<feColorMatrix in="SourceAlpha" type="matrix" values="0 0 0 0 0 0 0 0 0 0 0 0 0 0 0 0 0 0 127 0" result="hardAlpha"/>
<feOffset dx="-2.56"/>
<feGaussianBlur stdDeviation="1.28"/>
<feComposite in2="hardAlpha" operator="out"/>
<feColorMatrix type="matrix" values="0 0 0 0 0 0 0 0 0 0 0 0 0 0 0 0 0 0 0.08 0"/>
<feBlend mode="normal" in2="effect1_dropShadow_675_6572" result="effect2_dropShadow_675_6572"/>
<feBlend mode="normal" in="SourceGraphic" in2="effect2_dropShadow_675_6572" result="shape"/>
</filter>
<filter id="filter4_dd_675_6572" x="195.62" y="221.924" width="33.2831" height="33.283" filterUnits="userSpaceOnUse" color-interpolation-filters="sRGB">
<feFlood flood-opacity="0" result="BackgroundImageFix"/>
<feColorMatrix in="SourceAlpha" type="matrix" values="0 0 0 0 0 0 0 0 0 0 0 0 0 0 0 0 0 0 127 0" result="hardAlpha"/>
<feOffset dy="2.56"/>
<feGaussianBlur stdDeviation="1.28"/>
<feComposite in2="hardAlpha" operator="out"/>
<feColorMatrix type="matrix" values="0 0 0 0 0 0 0 0 0 0 0 0 0 0 0 0 0 0 0.08 0"/>
<feBlend mode="normal" in2="BackgroundImageFix" result="effect1_dropShadow_675_6572"/>
<feColorMatrix in="SourceAlpha" type="matrix" values="0 0 0 0 0 0 0 0 0 0 0 0 0 0 0 0 0 0 127 0" result="hardAlpha"/>
<feOffset dx="-2.56"/>
<feGaussianBlur stdDeviation="1.28"/>
<feComposite in2="hardAlpha" operator="out"/>
<feColorMatrix type="matrix" values="0 0 0 0 0 0 0 0 0 0 0 0 0 0 0 0 0 0 0.08 0"/>
<feBlend mode="normal" in2="effect1_dropShadow_675_6572" result="effect2_dropShadow_675_6572"/>
<feBlend mode="normal" in="SourceGraphic" in2="effect2_dropShadow_675_6572" result="shape"/>
</filter>
<filter id="filter5_dd_675_6572" x="227.977" y="217.809" width="33.2831" height="33.283" filterUnits="userSpaceOnUse" color-interpolation-filters="sRGB">
<feFlood flood-opacity="0" result="BackgroundImageFix"/>
<feColorMatrix in="SourceAlpha" type="matrix" values="0 0 0 0 0 0 0 0 0 0 0 0 0 0 0 0 0 0 127 0" result="hardAlpha"/>
<feOffset dy="2.56"/>
<feGaussianBlur stdDeviation="1.28"/>
<feComposite in2="hardAlpha" operator="out"/>
<feColorMatrix type="matrix" values="0 0 0 0 0 0 0 0 0 0 0 0 0 0 0 0 0 0 0.08 0"/>
<feBlend mode="normal" in2="BackgroundImageFix" result="effect1_dropShadow_675_6572"/>
<feColorMatrix in="SourceAlpha" type="matrix" values="0 0 0 0 0 0 0 0 0 0 0 0 0 0 0 0 0 0 127 0" result="hardAlpha"/>
<feOffset dx="2.56"/>
<feGaussianBlur stdDeviation="1.28"/>
<feComposite in2="hardAlpha" operator="out"/>
<feColorMatrix type="matrix" values="0 0 0 0 0 0 0 0 0 0 0 0 0 0 0 0 0 0 0.08 0"/>
<feBlend mode="normal" in2="effect1_dropShadow_675_6572" result="effect2_dropShadow_675_6572"/>
<feBlend mode="normal" in="SourceGraphic" in2="effect2_dropShadow_675_6572" result="shape"/>
</filter>
</defs>
</svg>
