<svg width="63" height="41" viewBox="0 0 63 41" fill="none" xmlns="http://www.w3.org/2000/svg">
<path d="M47.104 24.7808H53.0432" stroke="#134E4A" stroke-width="1.6384"/>
<path d="M9.42081 24.5762H15.36" stroke="#134E4A" stroke-width="1.6384"/>
<path d="M9.62561 18.0225H24.7808L9.62561 30.7201H24.7808" stroke="#2DD4BF" stroke-width="3.2768"/>
<path d="M53.248 18.0225H38.0928L53.248 30.7201H38.0928" stroke="#2DD4BF" stroke-width="3.2768"/>
<circle cx="40.96" cy="18.4317" r="8.192" fill="white"/>
<circle cx="21.7088" cy="18.4317" r="8.192" fill="white"/>
<path d="M40.96 20.48C40.96 15.0484 38.8023 9.8392 34.9615 5.99845C31.1208 2.15771 25.9116 4.10077e-07 20.48 0C15.0484 -4.10077e-07 9.8392 2.15771 5.99845 5.99845C2.15771 9.8392 8.20154e-07 15.0484 0 20.48L6.9861 20.48C6.9861 16.9012 8.40777 13.469 10.9384 10.9384C13.469 8.40777 16.9012 6.9861 20.48 6.9861C24.0588 6.9861 27.491 8.40777 30.0216 10.9384C32.5522 13.469 33.9739 16.9012 33.9739 20.48H40.96Z" fill="#4D7C0F"/>
<path d="M40.96 20.48C40.96 15.0484 38.8023 9.8392 34.9615 5.99845C31.1208 2.15771 25.9116 4.10077e-07 20.48 0C15.0484 -4.10077e-07 9.8392 2.15771 5.99845 5.99845C2.15771 9.8392 8.20154e-07 15.0484 0 20.48L6.9861 20.48C6.9861 16.9012 8.40777 13.469 10.9384 10.9384C13.469 8.40777 16.9012 6.9861 20.48 6.9861C24.0588 6.9861 27.491 8.40777 30.0216 10.9384C32.5522 13.469 33.9739 16.9012 33.9739 20.48H40.96Z" fill="#84CC16"/>
<path d="M62.6688 20.48C62.6688 15.0484 60.5111 9.8392 56.6703 5.99845C52.8296 2.15771 47.6204 4.10077e-07 42.1888 0C36.7572 -4.10077e-07 31.548 2.15771 27.7073 5.99845C23.8665 9.8392 21.7088 15.0484 21.7088 20.48L28.6949 20.48C28.6949 16.9012 30.1166 13.469 32.6472 10.9384C35.1778 8.40777 38.61 6.9861 42.1888 6.9861C45.7676 6.9861 49.1998 8.40777 51.7304 10.9384C54.261 13.469 55.6827 16.9012 55.6827 20.48H62.6688Z" fill="#A3E635"/>
<circle cx="24.3712" cy="18.6367" r="4.7104" fill="#18181B"/>
<circle cx="38.2976" cy="18.6367" r="4.7104" fill="#18181B"/>
<path d="M28.4672 27.2383C28.4672 27.2383 28.8088 29.7621 31.1296 29.9007C33.526 30.0438 34.2016 27.2383 34.2016 27.2383" stroke="#F97316" stroke-width="1.6384"/>
</svg>
