<svg width="51" height="33" viewBox="0 0 51 33" fill="none" xmlns="http://www.w3.org/2000/svg">
<path d="M37.6832 19.8247H42.4346" stroke="#134E4A" stroke-width="1.31072"/>
<path d="M7.53665 19.6606H12.288" stroke="#134E4A" stroke-width="1.31072"/>
<path d="M7.70047 14.418H19.8246L7.70047 24.5761H19.8246" stroke="#2DD4BF" stroke-width="2.62144"/>
<path d="M42.5984 14.418H30.4742L42.5984 24.5761H30.4742" stroke="#2DD4BF" stroke-width="2.62144"/>
<circle cx="32.768" cy="14.7455" r="6.5536" fill="white"/>
<circle cx="17.367" cy="14.7455" r="6.5536" fill="white"/>
<path d="M32.768 16.384C32.768 12.0387 31.0418 7.87136 27.9692 4.79876C24.8966 1.72617 20.7293 3.28062e-07 16.384 0C12.0387 -3.28062e-07 7.87136 1.72617 4.79876 4.79876C1.72617 7.87136 6.56123e-07 12.0387 0 16.384L5.58888 16.384C5.58888 13.521 6.72622 10.7752 8.7507 8.7507C10.7752 6.72622 13.521 5.58888 16.384 5.58888C19.247 5.58888 21.9928 6.72622 24.0173 8.7507C26.0418 10.7752 27.1791 13.521 27.1791 16.384H32.768Z" fill="#4D7C0F"/>
<path d="M32.768 16.384C32.768 12.0387 31.0418 7.87136 27.9692 4.79876C24.8966 1.72617 20.7293 3.28062e-07 16.384 0C12.0387 -3.28062e-07 7.87136 1.72617 4.79876 4.79876C1.72617 7.87136 6.56123e-07 12.0387 0 16.384L5.58888 16.384C5.58888 13.521 6.72622 10.7752 8.7507 8.7507C10.7752 6.72622 13.521 5.58888 16.384 5.58888C19.247 5.58888 21.9928 6.72622 24.0173 8.7507C26.0418 10.7752 27.1791 13.521 27.1791 16.384H32.768Z" fill="#F97316"/>
<path d="M50.135 16.384C50.135 12.0387 48.4089 7.87136 45.3363 4.79876C42.2637 1.72617 38.0963 3.28062e-07 33.751 0C29.4057 -3.28062e-07 25.2384 1.72617 22.1658 4.79876C19.0932 7.87136 17.367 12.0387 17.367 16.384L22.9559 16.384C22.9559 13.521 24.0933 10.7752 26.1177 8.7507C28.1422 6.72622 30.888 5.58888 33.751 5.58888C36.6141 5.58888 39.3599 6.72622 41.3843 8.7507C43.4088 10.7752 44.5462 13.521 44.5462 16.384H50.135Z" fill="#FB923C"/>
<circle cx="19.497" cy="14.9094" r="3.76832" fill="#18181B"/>
<circle cx="30.6381" cy="14.9094" r="3.76832" fill="#18181B"/>
<path d="M22.7738 21.7905C22.7738 21.7905 23.0471 23.8096 24.9037 23.9204C26.8209 24.0349 27.3613 21.7905 27.3613 21.7905" stroke="#F97316" stroke-width="1.31072"/>
</svg>
